<svg width="19" height="23" viewBox="0 0 19 23" fill="none" xmlns="http://www.w3.org/2000/svg">
<path fill-rule="evenodd" clip-rule="evenodd" d="M13.9587 22.0957H4.79199V19.3457H13.9587V22.0957Z" fill="#C32D37"/>
<path fill-rule="evenodd" clip-rule="evenodd" d="M8 22.0957L8 16.5957L10.75 16.5957L10.75 22.0957L8 22.0957Z" fill="#C32D37"/>
<path fill-rule="evenodd" clip-rule="evenodd" d="M3.41699 9.26245C3.41699 12.5531 6.08463 15.2208 9.37533 15.2208C12.666 15.2208 15.3337 12.5531 15.3337 9.26245H18.0837C18.0837 14.0719 14.1848 17.9708 9.37533 17.9708C4.56585 17.9708 0.666992 14.0719 0.666992 9.26245H3.41699Z" fill="#C32D37"/>
<path fill-rule="evenodd" clip-rule="evenodd" d="M8.25 9.15021L8.25058 9.16886C8.26939 9.77185 8.76616 10.2564 9.37497 10.2564C9.98378 10.2564 10.4805 9.77185 10.4994 9.16886L10.5 9.14817V7.2207H10.4999V4.2207V4.2207V4.22069V4.22069V4.22069V4.22068V4.22068V4.22067V4.22067C10.4999 3.59937 9.99627 3.0957 9.37497 3.0957C8.75367 3.0957 8.25 3.59937 8.25 4.22067V4.22068V4.22068V4.22068V4.22069V4.22069V4.2207V4.2207V4.2207V9.13142V9.15021ZM5.25204 9.26237H5.25V9.13142V6.26237V4.2207V4.22067C5.25 1.94251 7.09681 0.0957031 9.37497 0.0957031C11.6531 0.0957031 13.4999 1.94251 13.4999 4.2207H13.5V6.26237V7.2207V9.26237H13.4979C13.4287 11.4799 11.6093 13.2564 9.37497 13.2564C7.14062 13.2564 5.3212 11.4799 5.25204 9.26237Z" fill="#C32D37"/>
</svg>
