
<svg version="1.1" id="Layer_1" xmlns="http://www.w3.org/2000/svg" xmlns:xlink="http://www.w3.org/1999/xlink" x="0px" y="0px"
	 width="32px" height="32px" viewBox="0 0 32 32" style="enable-background:new 0 0 32 32;" xml:space="preserve">
<path style="fill-rule:evenodd;clip-rule:evenodd;fill:#C32D37;" d="M16,32c8.8,0,16-7.2,16-16c0-8.8-7.2-16-16-16C7.2,0,0,7.2,0,16
	C0,24.8,7.2,32,16,32z M8.8,12.1v11.4h3.5V12.1H8.8z M8.5,8.5c0,1.1,0.9,2.1,2.1,2.1c1.1,0,2-0.9,2-2.1c0-1.1-0.9-2.1-2-2.1
	C9.5,6.4,8.5,7.3,8.5,8.5z M22.1,23.5h3.5v-6.3c0-3.1-0.7-5.4-4.2-5.4c-1.7,0-2.9,0.9-3.3,1.8h0v-1.6h-3.4v11.4h3.5v-5.6
	c0-1.5,0.3-2.9,2.1-2.9c1.8,0,1.8,1.7,1.8,3V23.5z"/>
</svg>
