
<svg version="1.1" id="Layer_1" xmlns="http://www.w3.org/2000/svg" xmlns:xlink="http://www.w3.org/1999/xlink" x="0px" y="0px"
	 width="32px" height="32px" viewBox="0 0 32 32" style="enable-background:new 0 0 32 32;" xml:space="preserve">
<style type="text/css">
	.st0{fill-rule:evenodd;clip-rule:evenodd;fill:#C32D37;}
</style>
<path class="st0" d="M32,16c0,8.8-7.2,16-16,16C7.2,32,0,24.8,0,16C0,7.2,7.2,0,16,0C24.8,0,32,7.2,32,16z M6.7,9.7
	C6.7,9.8,6.7,9.8,6.7,9.7L6.7,9.7l0,11.8c0,0.5,0.2,0.9,0.5,1.2C7.5,23,8,23.2,8.4,23.2h15.1c0.5,0,0.9-0.2,1.2-0.5
	c0.3-0.3,0.5-0.8,0.5-1.2V9.8l0,0c0,0,0,0,0-0.1c0-0.1,0-0.2-0.1-0.3c0-0.1-0.1-0.2-0.2-0.3c0,0,0,0-0.1-0.1
	c-0.1-0.1-0.2-0.2-0.3-0.2c-0.1-0.1-0.3-0.1-0.4-0.1l0,0H7.8l0,0c-0.1,0-0.3,0-0.4,0.1C7.2,8.9,7.1,9,7,9.1c0,0,0,0-0.1,0.1
	C6.9,9.2,6.8,9.3,6.8,9.4C6.8,9.5,6.7,9.6,6.7,9.7z M10.4,10.8l4.8,4.4c0,0,0,0,0,0L16,16l0.8-0.7c0,0,0,0,0,0l4.8-4.4H10.4z
	 M17.5,17.4l-0.8,0.7c-0.4,0.4-1,0.4-1.4,0l-0.8-0.7l-4.1,3.8h11.2L17.5,17.4z M23.2,19.8L19,16l4.2-3.8V19.8z M8.8,12.2L13,16
	l-4.2,3.8V12.2z"/>
</svg>
