<?xml version="1.0" encoding="utf-8"?>
<!-- Generator: Adobe Illustrator 27.2.0, SVG Export Plug-In . SVG Version: 6.00 Build 0)  -->
<svg version="1.1" id="Layer_1" xmlns="http://www.w3.org/2000/svg" xmlns:xlink="http://www.w3.org/1999/xlink" x="0px" y="0px"
	 width="32px" height="32px" viewBox="0 0 32 32" style="enable-background:new 0 0 32 32;" xml:space="preserve">
<style type="text/css">
	.st0{fill-rule:evenodd;clip-rule:evenodd;fill:#C32D37;}
</style>
<path class="st0" d="M32,16c0,8.8-7.2,16-16,16S0,24.8,0,16S7.2,0,16,0S32,7.2,32,16z M9.4,8.3c0-0.6,0.5-1,1-1h11.2
	c0.6,0,1,0.5,1,1v2.4h0.9c1.3,0,2.6,1,2.6,2.4v7c0,0.6-0.5,1-1,1h-2.4v2.4c0,0.6-0.5,1-1,1H10.4c-0.6,0-1-0.5-1-1v-2.4H6.9
	c-0.6,0-1-0.5-1-1v-7c0-1.4,1.2-2.4,2.6-2.4h0.9V8.3z M21.6,12.9L21.6,12.9H10.4l0,0l0,0h-2c-0.3,0-0.5,0.2-0.5,0.3v5.9h1.4v-0.3
	c0-0.6,0.5-1,1-1h11.2c0.6,0,1,0.5,1,1v0.3H24v-5.9c0-0.1-0.1-0.3-0.5-0.3L21.6,12.9L21.6,12.9z M20.5,9.4v1.4h-9.1V9.4H20.5z
	 M11.5,20.2L11.5,20.2v2.4h9.1v-2.8h-9.1V20.2L11.5,20.2z M22.6,15.3c0,0.8-0.6,1.4-1.4,1.4s-1.4-0.6-1.4-1.4c0-0.8,0.6-1.4,1.4-1.4
	C22,13.9,22.6,14.5,22.6,15.3z"/>
</svg>
