
<svg version="1.1" id="Layer_1" xmlns="http://www.w3.org/2000/svg" xmlns:xlink="http://www.w3.org/1999/xlink" x="0px" y="0px"
	 width="32px" height="33px" viewBox="0 0 32 33" style="enable-background:new 0 0 32 33;" xml:space="preserve">
<path style="fill-rule:evenodd;clip-rule:evenodd;fill:#535658;" d="M16,33c8.8,0,16-7.2,16-16c0-8.8-7.2-16-16-16C7.2,1,0,8.2,0,17
	C0,25.8,7.2,33,16,33z M8.1,9h2.7l4.5,5.1L19.3,9H25l-6.8,8.7l6.4,7.3h-2.7l-5-5.6L12.6,25H7l7.1-9.2L8.1,9z M10.3,23.4h1.5l10-12.8
	h-1.7L10.3,23.4z"/>
</svg>
