<svg width="1096" height="440" viewBox="0 0 1096 440" fill="none" xmlns="http://www.w3.org/2000/svg">
<rect width="1096" height="440" fill="#FAFAFA"/>
<mask id="mask0_81_470" style="mask-type:alpha" maskUnits="userSpaceOnUse" x="0" y="2" width="1096" height="438">
<g style="mix-blend-mode:multiply">
<path d="M1096 4.71607C1096 3.6115 1095.1 2.71606 1094 2.71606H1.99998C0.895407 2.71606 0 3.6115 0 4.71606V438C0 439.105 0.895431 440 2 440H1094C1095.1 440 1096 439.105 1096 438V4.71607Z" fill="#FAFAFA"/>
</g>
</mask>
<g mask="url(#mask0_81_470)">
<path d="M774.932 -48.3411L213.229 454.106L-21.0065 454.132L820.73 -298.795L774.932 -48.3411Z" stroke="#84888A" stroke-width="0.75"/>
<path d="M819.636 221.291L819.387 221.068L819.137 221.291L472.116 530.736L242.238 530.757L758.693 70.2234C758.694 70.2232 758.694 70.223 758.694 70.2228C774.842 55.8918 796.713 47.8499 819.51 47.8721C842.307 47.8943 864.154 55.9789 880.26 70.3416L1395.88 530.131L1166 530.152L819.636 221.291Z" stroke="#84888A" stroke-width="0.75"/>
</g>
</svg>
