<svg width="127" height="37" viewBox="0 0 127 37" fill="none" xmlns="http://www.w3.org/2000/svg">
<rect x="0.666992" y="0.0285645" width="125.417" height="36" rx="3" fill="white"/>
<path fill-rule="evenodd" clip-rule="evenodd" d="M29.9587 29.0286H20.792V26.2786H29.9587V29.0286Z" fill="#C32D37"/>
<path fill-rule="evenodd" clip-rule="evenodd" d="M24 29.0286L24 23.5286L26.75 23.5286L26.75 29.0286L24 29.0286Z" fill="#C32D37"/>
<path fill-rule="evenodd" clip-rule="evenodd" d="M19.417 16.1953C19.417 19.486 22.0846 22.1536 25.3753 22.1536C28.666 22.1536 31.3337 19.486 31.3337 16.1953H34.0837C34.0837 21.0048 30.1848 24.9036 25.3753 24.9036C20.5658 24.9036 16.667 21.0048 16.667 16.1953H19.417Z" fill="#C32D37"/>
<path fill-rule="evenodd" clip-rule="evenodd" d="M24.25 16.0831L24.2506 16.1017C24.2694 16.7047 24.7662 17.1892 25.375 17.1892C25.9838 17.1892 26.4805 16.7047 26.4994 16.1017L26.5 16.081V14.1536H26.4999V11.1536V11.1536V11.1536V11.1536V11.1535V11.1535V11.1535V11.1535V11.1535C26.4999 10.5322 25.9963 10.0286 25.375 10.0286C24.7537 10.0286 24.25 10.5322 24.25 11.1535V11.1535V11.1535V11.1535V11.1535V11.1536V11.1536V11.1536V11.1536V16.0643V16.0831ZM21.252 16.1952H21.25V16.0643V13.1952V11.1536V11.1535C21.25 8.87538 23.0968 7.02856 25.375 7.02856C27.6531 7.02856 29.4999 8.87538 29.4999 11.1536H29.5V13.1952V14.1536V16.1952H29.4979C29.4287 18.4128 27.6093 20.1892 25.375 20.1892C23.1406 20.1892 21.3212 18.4128 21.252 16.1952Z" fill="#C32D37"/>
<path d="M49.216 11.5226V22.0346H55.462V23.5286H47.506V11.5226H49.216ZM60.0343 11.5226V23.5286H58.3243V11.5226H60.0343ZM72.8494 15.2306H71.1034C70.9234 13.5746 69.9334 12.7646 68.1154 12.7646C66.5134 12.7646 65.4874 13.4486 65.4874 14.4926C65.4874 15.3746 66.1174 15.8966 67.6474 16.2386L69.5914 16.6706C71.0134 16.9946 71.7334 17.3006 72.3094 17.8226C72.9394 18.3806 73.2814 19.1906 73.2814 20.1266C73.2814 22.3946 71.4454 23.7986 68.5294 23.7986C65.4154 23.7986 63.5434 22.2146 63.2914 19.3346H65.0734C65.2534 21.2426 66.5134 22.3046 68.5834 22.3046C70.3114 22.3046 71.5354 21.4586 71.5354 20.2526C71.5354 19.3526 70.8874 18.7586 69.6274 18.4526L66.9274 17.8046C64.7314 17.2826 63.7414 16.3106 63.7414 14.6906C63.7414 12.5846 65.4874 11.2526 68.2414 11.2526C70.9954 11.2526 72.4714 12.5306 72.8494 15.2306ZM80.7099 13.0166V23.5286H78.9999V13.0166H75.2559V11.5226H84.4539V13.0166H80.7099ZM95.6699 11.5226V13.0166H88.9559V16.6346H95.0939V18.0386H88.9559V22.0346H95.9039V23.5286H87.2459V11.5226H95.6699ZM108.586 23.5286H106.858L101.944 15.9506C101.35 15.0146 100.99 14.4206 100.702 13.8806C100.738 14.4206 100.756 15.5546 100.756 16.1486V23.5286H99.1365V11.5226H100.882L105.598 18.8306C106.048 19.5146 106.66 20.5946 107.02 21.3146C106.984 20.6486 106.966 19.9106 106.966 19.0646V11.5946H108.586V23.5286Z" fill="#7A7D82"/>
</svg>
