<?xml version="1.0" encoding="UTF-8"?>
<svg id="Layer_1" xmlns="http://www.w3.org/2000/svg" width="153" height="37" version="1.1" viewBox="0 0 153 37">
  <!-- Generator: Adobe Illustrator 29.3.1, SVG Export Plug-In . SVG Version: 2.1.0 Build 151)  -->
  <rect y="1" width="153" height="36" rx="3" ry="3" style="fill: #fff;"/>
  <rect x="16" y="23.5" width="3" height="3" style="fill: #c32d37;"/>
  <rect x="21" y="23.5" width="15" height="3" style="fill: #c32d37;"/>
  <rect x="16" y="17.5" width="3" height="3" style="fill: #c32d37;"/>
  <rect x="21" y="17.5" width="15" height="3" style="fill: #c32d37;"/>
  <rect x="16" y="11.5" width="3" height="3" style="fill: #c32d37;"/>
  <rect x="21" y="11.5" width="15" height="3" style="fill: #c32d37;"/>
  <path d="M51.1,19.5v5h-1.7v-12h4.9c1.6,0,2.4.2,3.1.8.7.6,1.1,1.5,1.1,2.5s-.6,2.3-1.9,2.9c1,.4,1.3,1.1,1.4,2.5v1c.2,1.2.3,1.7.7,2.2h-2.1c-.1-.5-.2-.8-.3-2.2v-.9c-.2-1.2-.9-1.9-2-1.9h-3.3ZM51.1,18.1h2.9c.9,0,1.5-.2,2-.5.5-.4.8-1,.8-1.7,0-1.2-.8-2-2.2-2h-3.4v4.2ZM70.6,12.4v1.5h-6.7v3.6h6.1v1.4h-6.1v4h6.9v1.5h-8.7v-12h8.4ZM80.8,20.9h-4.5l-1.2,3.6h-1.8l4.4-12h1.8l4.4,12h-1.9l-1.2-3.6ZM80.4,19.4l-1.8-5.1-1.8,5.1h3.5ZM86.6,24.5v-12h4.3c2,0,3.3.6,4.2,1.9.7,1,1.1,2.4,1.1,4,0,3.8-2.1,6.1-5.4,6.1h-4.2ZM88.3,23h2.1c2.7,0,4-1.5,4-4.6s-.3-2.4-.8-3.2c-.6-.9-1.6-1.3-3.2-1.3h-2.2v9ZM106.2,24.5v-12h4.6c1.6,0,2.3.2,3.1.7.8.5,1.2,1.4,1.2,2.4s-.5,2-1.7,2.6c1.4.5,2.1,1.4,2.1,2.8s-.5,2.2-1.4,2.8c-.8.5-1.7.7-3.5.7h-4.4ZM107.8,17.6h3.2c.8,0,1.4-.1,1.8-.5.4-.3.6-.8.6-1.4s-.2-1-.6-1.4c-.4-.3-.9-.5-1.8-.5h-3.2v3.7ZM107.8,23h3.5c1.5,0,2.5-.8,2.5-2s-.8-2-2.3-2h-3.7v4ZM120.5,12.4v12h-1.7v-12h1.7ZM129.7,12.2c3.5,0,5.8,2.6,5.8,6.4s-2.4,6.2-5.8,6.2-5.8-2.6-5.8-6.3,2.4-6.3,5.8-6.3ZM129.7,13.7c-2.4,0-4.1,1.9-4.1,4.8s1.6,4.8,4.1,4.8,4-1.9,4-4.7-1.6-4.8-4-4.8Z" style="fill: #7a7d82;"/>
</svg>