<svg width="176" height="37" viewBox="0 0 176 37" fill="none" xmlns="http://www.w3.org/2000/svg">
<rect x="0.333008" y="0.0285645" width="175" height="36" rx="3" fill="#F7F7F7"/>
<rect x="16.333" y="22.5286" width="3" height="3" fill="#C32D37"/>
<rect x="21.332" y="22.5286" width="15" height="3" fill="#C32D37"/>
<rect x="16.333" y="16.5286" width="3" height="3" fill="#C32D37"/>
<rect x="21.332" y="16.5286" width="15" height="3" fill="#C32D37"/>
<rect x="16.333" y="10.5286" width="3" height="3" fill="#C32D37"/>
<rect x="21.332" y="10.5286" width="15" height="3" fill="#C32D37"/>
<path d="M51.464 18.5786V23.5286H49.754V11.5226H54.65C56.216 11.5226 57.044 11.7386 57.782 12.3326C58.502 12.9086 58.88 13.7906 58.88 14.8706C58.88 16.2386 58.304 17.1566 57.026 17.8046C57.98 18.2366 58.358 18.9206 58.448 20.3426L58.52 21.3506C58.61 22.5026 58.754 23.0246 59.114 23.5286H57.026C56.882 23.0246 56.846 22.7546 56.756 21.3506L56.666 20.4686C56.558 19.2446 55.874 18.5786 54.74 18.5786H51.464ZM51.464 17.1746H54.326C55.244 17.1746 55.874 17.0126 56.342 16.6706C56.828 16.3106 57.134 15.6806 57.134 14.9966C57.134 13.7546 56.288 13.0166 54.884 13.0166H51.464V17.1746ZM70.9299 11.5226V13.0166H64.2159V16.6346H70.3539V18.0386H64.2159V22.0346H71.1639V23.5286H62.5059V11.5226H70.9299ZM81.1715 19.9286H76.6535L75.4295 23.5286H73.6115L78.0215 11.5226H79.8575L84.2855 23.5286H82.4135L81.1715 19.9286ZM80.6855 18.4886L78.9215 13.3766L77.1575 18.4886H80.6855ZM86.9725 23.5286V11.5226H91.2925C93.2545 11.5226 94.6225 12.1346 95.5225 13.4486C96.2425 14.4926 96.6025 15.8066 96.6025 17.4086C96.6025 21.1886 94.5325 23.5286 91.1665 23.5286H86.9725ZM88.6825 22.0346H90.8245C93.5425 22.0346 94.8565 20.5586 94.8565 17.4626C94.8565 16.0766 94.6045 15.0866 94.0825 14.3126C93.4705 13.4126 92.4985 13.0166 90.9325 13.0166H88.6825V22.0346ZM112.98 23.5286H111.63L108.84 16.3286C108.516 15.4106 108.246 14.6186 108.03 13.8446C108.084 14.7446 108.12 15.7166 108.12 16.4726V23.5286H106.5V11.5226H108.606L111.594 19.2086C111.972 20.2526 112.026 20.3786 112.314 21.3326C112.674 20.2526 112.818 19.8566 113.034 19.2446L116.004 11.5766H118.11V23.5286H116.49V16.4726C116.49 15.6446 116.526 14.7806 116.58 13.8446C116.292 14.8166 116.076 15.5006 115.698 16.4726L112.98 23.5286ZM127.303 11.2526C130.759 11.2526 133.117 13.8446 133.117 17.6066C133.117 21.1886 130.669 23.7986 127.321 23.7986C123.937 23.7986 121.525 21.1886 121.525 17.5166C121.525 13.8626 123.937 11.2526 127.303 11.2526ZM127.321 12.7466C124.909 12.7466 123.271 14.6906 123.271 17.5166C123.271 20.3606 124.909 22.3046 127.321 22.3046C129.697 22.3046 131.371 20.3606 131.371 17.5886C131.371 14.6726 129.751 12.7466 127.321 12.7466ZM138.266 18.5786V23.5286H136.556V11.5226H141.452C143.018 11.5226 143.846 11.7386 144.584 12.3326C145.304 12.9086 145.682 13.7906 145.682 14.8706C145.682 16.2386 145.106 17.1566 143.828 17.8046C144.782 18.2366 145.16 18.9206 145.25 20.3426L145.322 21.3506C145.412 22.5026 145.556 23.0246 145.916 23.5286H143.828C143.684 23.0246 143.648 22.7546 143.558 21.3506L143.468 20.4686C143.36 19.2446 142.676 18.5786 141.542 18.5786H138.266ZM138.266 17.1746H141.128C142.046 17.1746 142.676 17.0126 143.144 16.6706C143.63 16.3106 143.936 15.6806 143.936 14.9966C143.936 13.7546 143.09 13.0166 141.686 13.0166H138.266V17.1746ZM157.732 11.5226V13.0166H151.018V16.6346H157.156V18.0386H151.018V22.0346H157.966V23.5286H149.308V11.5226H157.732Z" fill="#7A7D82"/>
</svg>
