<svg width="125" height="37" viewBox="0 0 125 37" fill="none" xmlns="http://www.w3.org/2000/svg">
<rect y="0.0285645" width="125" height="36" rx="3" fill="white"/>
<path fill-rule="evenodd" clip-rule="evenodd" d="M19.6884 12.9976L28.4867 18.0286L21.259 22.1614L21.2809 22.1986L16 25.1972V26.2121C16 27.6108 17.5417 28.4831 18.7711 27.7801L33.0827 19.5966C34.3058 18.8973 34.3058 17.1599 33.0827 16.4605L18.7711 8.27704C17.5417 7.57403 16 8.44637 16 9.84506V22.0557L19.6884 19.9613L19.6884 12.9976Z" fill="#C32D37"/>
<path d="M51.04 23.5286H49.24L46.18 11.5226H47.89L49.708 19.2626C50.014 20.7026 50.05 20.9186 50.14 21.6026C50.176 21.4046 50.194 21.2606 50.212 21.2066L50.32 20.5946C50.392 20.2166 50.554 19.4606 50.59 19.2626L52.462 11.5226H54.604L56.512 19.0286C56.656 19.6406 56.944 21.0806 57.016 21.6026C57.178 20.5766 57.376 19.5506 57.502 19.0286L59.302 11.5226H60.994L57.916 23.5286H56.116L54.028 15.3926C53.776 14.2766 53.632 13.6466 53.542 13.0166C53.434 13.7726 53.308 14.3666 53.056 15.3926L51.04 23.5286ZM69.568 19.9286H65.05L63.826 23.5286H62.008L66.418 11.5226H68.254L72.682 23.5286H70.81L69.568 19.9286ZM69.082 18.4886L67.318 13.3766L65.554 18.4886H69.082ZM78.4385 13.0166V23.5286H76.7285V13.0166H72.9845V11.5226H82.1825V13.0166H78.4385ZM94.543 15.1226L92.869 15.2846C92.509 13.7006 91.303 12.7466 89.647 12.7466C87.343 12.7466 85.831 14.6186 85.831 17.4446C85.831 20.3426 87.343 22.3046 89.593 22.3046C91.465 22.3046 92.761 21.0446 93.031 18.9566H94.759C94.615 20.1446 94.345 20.9006 93.733 21.7466C92.743 23.1146 91.357 23.7986 89.557 23.7986C87.775 23.7986 86.353 23.1146 85.345 21.7466C84.481 20.5766 84.031 19.1186 84.031 17.4806C84.031 13.8266 86.353 11.2526 89.647 11.2526C92.203 11.2526 94.021 12.6926 94.543 15.1226ZM105.73 18.0206H99.7V23.5286H97.99V11.5226H99.7V16.5266H105.73V11.5226H107.44V23.5286H105.73V18.0206Z" fill="#7A7D82"/>
</svg>
