<svg xmlns="http://www.w3.org/2000/svg" width="25" height="26" viewBox="0 0 25 26" fill="none">
  <g clip-path="url(#clip0_1348_2937)">
    <mask id="mask0_1348_2937" style="mask-type:luminance" maskUnits="userSpaceOnUse" x="0" y="0" width="25" height="26">
      <path d="M25 0.0220947H0V25.0221H25V0.0220947Z" fill="white"/>
    </mask>
    <g mask="url(#mask0_1348_2937)">
      <path d="M12.5 3.35208C7.44645 3.35208 3.32999 7.46855 3.32999 12.5221C3.32999 17.5756 7.44645 21.6921 12.5 21.6921C17.5535 21.6921 21.67 17.5756 21.67 12.5221C21.67 7.46855 17.5535 3.35208 12.5 3.35208ZM12.5 25.0221C5.60576 25.0221 0 19.4163 0 12.5221C0 5.62785 5.60576 0.0220947 12.5 0.0220947C19.3942 0.0220947 25 5.62785 25 12.5221C25 19.4163 19.3942 25.0221 12.5 25.0221Z" fill="#670026"/>
    </g>
    <path d="M10.6593 18.5295L5.87354 13.7436L8.23297 11.4009L10.6593 13.8106L16.7671 7.70282L19.1265 10.0623L10.6593 18.5295Z" fill="#670026"/>
  </g>
  <defs>
    <clipPath id="clip0_1348_2937">
      <rect width="25" height="25" fill="white" transform="translate(0 0.0220947)"/>
    </clipPath>
  </defs>
</svg>