<svg width="11" height="14" viewBox="0 0 11 14" fill="none" xmlns="http://www.w3.org/2000/svg">
<g clip-path="url(#clip0_199_318)">
<path d="M1.2832 13.1917H9.35217" stroke="#C32D37" stroke-linecap="round" stroke-linejoin="round"/>
<path d="M5.31776 7.81228C6.30807 7.81228 7.11087 7.00948 7.11087 6.01918C7.11087 5.02887 6.30807 4.22607 5.31776 4.22607C4.32746 4.22607 3.52466 5.02887 3.52466 6.01918C3.52466 7.00948 4.32746 7.81228 5.31776 7.81228Z" stroke="#C32D37" stroke-linecap="round" stroke-linejoin="round"/>
<path d="M9.80048 6.01914C9.80048 10.0536 5.31772 13.1915 5.31772 13.1915C5.31772 13.1915 0.834961 10.0536 0.834961 6.01914C0.834961 4.83023 1.30725 3.69003 2.14793 2.84935C2.98861 2.00867 4.12882 1.53638 5.31772 1.53638C6.50662 1.53638 7.64683 2.00867 8.48751 2.84935C9.32819 3.69003 9.80048 4.83023 9.80048 6.01914Z" stroke="#C32D37" stroke-linecap="round" stroke-linejoin="round"/>
</g>
<defs>
<clipPath id="clip0_199_318">
<rect width="10.3103" height="13" fill="white" transform="translate(0 0.952637)"/>
</clipPath>
</defs>
</svg>
